<svg width="256" height="256" viewBox="0 0 256 256" fill="none" xmlns="http://www.w3.org/2000/svg">
  <defs>
    <linearGradient id="bg" x1="28" y1="24" x2="228" y2="232" gradientUnits="userSpaceOnUse">
      <stop stop-color="#08131A" />
      <stop offset="1" stop-color="#121725" />
    </linearGradient>
    <linearGradient id="accent" x1="78" y1="54" x2="182" y2="194" gradientUnits="userSpaceOnUse">
      <stop stop-color="#28D7FF" />
      <stop offset="1" stop-color="#7A8CFF" />
    </linearGradient>
    <linearGradient id="gloss" x1="50" y1="34" x2="178" y2="154" gradientUnits="userSpaceOnUse">
      <stop stop-color="white" stop-opacity="0.18" />
      <stop offset="1" stop-color="white" stop-opacity="0" />
    </linearGradient>
  </defs>

  <rect x="20" y="20" width="216" height="216" rx="52" fill="url(#bg)" />
  <rect x="20.75" y="20.75" width="214.5" height="214.5" rx="51.25" stroke="white" stroke-opacity="0.08" stroke-width="1.5" />
  <path d="M36 68C36 50.3269 50.3269 36 68 36H176C193.673 36 208 50.3269 208 68V72H36V68Z" fill="url(#gloss)" />

  <path
    d="M86 58V198"
    stroke="url(#accent)"
    stroke-width="18"
    stroke-linecap="round"
  />
  <path
    d="M86 58H132C159.062 58 176 74.0782 176 97.5C176 120.922 159.062 137 132 137H86"
    stroke="url(#accent)"
    stroke-width="18"
    stroke-linecap="round"
    stroke-linejoin="round"
  />
  <path
    d="M132 137L182 198"
    stroke="url(#accent)"
    stroke-width="18"
    stroke-linecap="round"
    stroke-linejoin="round"
  />

  <path
    d="M188 66H200"
    stroke="#28D7FF"
    stroke-width="6"
    stroke-linecap="round"
    opacity="0.9"
  />
</svg>
